<?xml version="1.0" encoding="utf-8"?>
<svg viewBox="150.0909 165.49 200.1058 187.1874" width="200.1058" height="187.1874">
  <path style="stroke: rgb(0, 0, 0); fill: rgb(255, 255, 255);" d="M 164.744 342.957 C 165.641 356.377 335.099 355.45 334.264 342.956 L 321.949 224.645 L 345.126 224.645 C 351.057 225.428 352.873 166.587 344.574 165.49 L 300 165.661 C 279.996 195.218 194.897 180.228 200 165.723 L 154.904 165.49 C 148.13 165.518 148.76 225.001 155.202 224.645 L 175.952 224.645 L 164.744 342.957 Z"></path>
  <path d="M 238.12 200 C 232.996 200.311 229.379 202.165 227.371 205.561 L 214.186 228.964 L 222.997 234.142 L 200.312 237.019 L 207.249 241.111 L 201.188 251.662 C 199.914 253.915 199.18 258.967 201.561 262.66 C 202.507 264.121 205.553 269.7 208.249 274.615 C 210.577 278.86 212.756 282.856 213.748 284.526 C 214.904 286.132 216.044 287.716 216.186 287.914 C 216.192 287.914 213.63 283.511 218.186 275.448 L 229.997 254.539 L 236.934 258.631 L 228.059 237.148 L 236.87 242.326 L 255.744 208.886 C 259.564 201.59 262.617 200.327 263.305 200.127 C 263.649 200.127 263.931 200.127 264.243 200.127 C 263.977 200.119 263.703 200.055 263.431 200.063 C 263.267 200.063 263.095 200.055 262.931 200.063 C 260.141 200.119 255.322 200.102 249.495 200.063 C 246.033 200.039 242.237 200.006 238.12 200 Z M 265.931 200.319 C 264.735 200.911 262.149 202.852 258.994 208.886 L 251.744 221.739 L 255.994 229.346 L 249.057 233.504 L 271.68 236.317 L 262.867 241.496 L 274.304 261.764 L 289.179 261.764 C 295.434 261.764 298.544 259.701 299.863 258.375 C 300.231 255.865 299.855 253.541 298.74 251.47 L 285.553 228.133 L 276.742 233.312 L 285.679 211.828 L 278.742 215.92 L 272.804 205.305 C 271.796 203.515 269.149 201.095 265.931 200.319 Z M 264.305 256.712 L 250.556 275.382 L 250.556 264.962 L 227.685 264.962 L 220.248 278.132 C 217.122 283.679 217.35 287.482 217.81 289.322 C 219.756 290.903 221.871 291.767 224.185 291.816 L 250.556 291.816 L 250.556 281.33 L 264.305 300 L 264.305 291.816 L 276.242 291.879 C 278.788 291.879 283.429 290.089 285.365 286.124 C 286.131 284.559 289.365 279.012 292.178 274.169 C 294.606 269.981 296.88 266.04 297.802 264.321 C 298.592 262.492 299.325 260.708 299.427 260.485 C 299.427 260.485 297.028 264.962 287.929 264.962 L 264.305 264.962 L 264.305 256.712 Z" style=""></path>
</svg>